<?xml version="1.0" encoding="UTF-8" standalone="no"?>
<!-- Uploaded to: SVG Repo, www.svgrepo.com, Generator: SVG Repo Mixer Tools -->

<svg
   version="1.1"
   id="Layer_1"
   viewBox="0 0 512 512"
   xml:space="preserve"
   sodipodi:docname="add-plus-svgrepo-com.svg"
   inkscape:version="1.3 (0e150ed6c4, 2023-07-21)"
   xmlns:inkscape="http://www.inkscape.org/namespaces/inkscape"
   xmlns:sodipodi="http://sodipodi.sourceforge.net/DTD/sodipodi-0.dtd"
   xmlns="http://www.w3.org/2000/svg"
   xmlns:svg="http://www.w3.org/2000/svg"><defs
   id="defs2" /><sodipodi:namedview
   id="namedview2"
   pagecolor="#ffffff"
   bordercolor="#000000"
   borderopacity="0.25"
   inkscape:showpageshadow="2"
   inkscape:pageopacity="0.0"
   inkscape:pagecheckerboard="0"
   inkscape:deskcolor="#d1d1d1"
   inkscape:zoom="1.4667969"
   inkscape:cx="255.65912"
   inkscape:cy="256"
   inkscape:window-width="1920"
   inkscape:window-height="986"
   inkscape:window-x="-11"
   inkscape:window-y="-11"
   inkscape:window-maximized="1"
   inkscape:current-layer="Layer_1" />&#10;<path
   style="fill:#999999;stroke-width:0.0871557"
   d="m 26.592705,0 h -1.548355 -0.02738 -0.183379 -0.02821 v 0 h -0.02904 v 0 h -0.02904 v 0 h -0.01825 -0.01328 -0.01825 -0.01328 -0.01825 -0.01162 -0.01992 v 0 h -0.0307 v 0 h -0.02987 v 0 h -0.02987 v 0 h -0.0307 v 0 h -0.0307 v 0 l -0.08298,0.00468708 v 0 h -0.03153 v 0 h -0.0307 v 0 h -0.03153 v 0 c -0.615702,0.03925433 -1.223925,0.09081225 -1.82551,0.15584554 L 22.736754,1.3182423 C 24.014603,1.1998935 25.304069,1.1506791 26.592705,1.171771 Z M 18.427748,0.90284954 C 17.1109,1.202237 15.829732,1.5748602 14.595861,2.016032 l 0.746795,1.0452197 C 16.499358,2.6470306 17.700038,2.2978429 18.933909,2.016032 L 18.424429,0.90284954 Z M 11.057713,3.5393342 C 9.9358612,4.1123304 8.8795614,4.7462585 7.8971115,5.4352596 L 9.0654304,6.2672169 C 9.987307,5.6221573 10.978055,5.028655 12.029376,4.4919839 L 11.057713,3.5422637 c 0,0 0,-0.00293 0,-0.00293 z M 5.1887355,7.6510785 C 4.9671863,7.8655127 4.7506159,8.0834619 4.5373644,8.3043408 v 0 l -0.026551,0.028123 v 0 l -0.017425,0.01875 v 0 l -0.00913,0.00937 v 0 l -0.017425,0.018162 v 0 l -0.0083,0.00879 v 0 l -0.0083,0.00879 v 0 l -0.0083,0.00879 v 0 l -0.016595,0.017577 v 0 l -0.0083,0.00879 v 0 l -0.0083,0.00879 v 0 l -0.0083,0.00879 v 0 l -0.0083,0.00879 v 0 l -0.00747,0.0082 v 0 l -0.00747,0.0082 v 0 l -0.00747,0.0082 v 0 l -0.0083,0.00879 v 0 l -0.00747,0.0082 v 0 l -0.00747,0.00762 v 0 l -0.00747,0.0082 v 0 l -0.00747,0.0082 v 0 l -0.00747,0.00762 v 0 l -0.00747,0.0082 v 0 l -0.00664,0.00762 v 0 l -0.00747,0.0082 v 0 l -0.00747,0.0082 v 0 l -0.00664,0.00703 v 0 l -0.00747,0.0082 v 0 l -0.00747,0.0082 v 0 l -0.00747,0.00762 v 0 l -0.00747,0.0082 v 0 l -0.00664,0.00762 v 0 l -0.00747,0.0082 v 0 l -0.00747,0.0082 v 0 l -0.00581,0.00703 v 0 l -0.00664,0.00762 v 0 l -0.00581,0.00645 v 0 l -0.00581,0.00703 v 0.00292 l -0.00664,0.00762 v 0 l -0.00581,0.00645 v 0 l -0.00664,0.00762 v 0 l -0.00664,0.00703 v 0 l -0.00581,0.00645 v 0 l -0.00664,0.00762 v 0 l -0.00581,0.00586 v 0 l -0.00664,0.00703 v 0.00292 l -0.00664,0.00762 v 0 l -0.00498,0.00586 v 0 l -0.00664,0.00762 v 0 l -0.00581,0.00645 v 0.0035 l -0.00498,0.00586 v 0 l -0.00664,0.00762 v 0.00292 l -0.00498,0.00527 v 0.0035 l -0.00581,0.00645 v 0.0035 l -0.092934,0.087883 v 0.00292 l -0.00498,0.00527 v 0.00292 l -0.00664,0.00762 v 0.0035 l -0.00498,0.00527 v 0.00469 l -0.00498,0.00586 v 0.0035 l -0.00664,0.00703 v 0.00292 l -0.00498,0.00586 v 0 l -0.00664,0.00762 v 0.0035 l -0.00581,0.00645 v 0.0035 l -0.00498,0.00586 v 0.00292 l -0.00664,0.00703 v 0.00292 l -0.00498,0.00586 v 0.0035 l -0.00581,0.00645 v 0.0035 l -0.00664,0.00703 v 0.0035 l -0.00498,0.00527 v 0.00292 l -0.00664,0.00703 v 0.0035 l -0.00581,0.00703 v 0 l -0.00581,0.00645 v 0.00292 l -0.00664,0.00762 v 0.00292 l -0.00498,0.00586 v 0.0041 l -0.00581,0.00645 v 0.0035 l -0.00664,0.00762 v 0.00292 l -0.00415,0.00527 v 0.0035 l -0.00581,0.00703 v 0.0035 l -0.00498,0.00586 v 0.0041 l -0.00498,0.00586 v 0.0035 l -0.00664,0.00762 v 0.00292 l -0.00498,0.00527 v 0.0035 l -0.00581,0.00703 v 0.0035 l -0.00498,0.00586 v 0.00469 l -0.00415,0.00527 v 0.0035 l -0.00581,0.00703 v 0.0041 0.00469 0.00469 l -0.00498,0.00586 v 0.0035 l -0.00581,0.00762 v 0.00292 l -0.00498,0.00527 v 0.00292 l -0.00664,0.00762 v 0.00292 l -0.00581,0.00645 v 0.0041 l -0.00498,0.00586 v 0.0035 l -0.00581,0.00703 v 0.0035 l -0.00415,0.00527 v 0.0041 l -0.00581,0.00645 v 0.0035 l -0.00581,0.00762 v 0.0035 l -0.00415,0.00527 v 0.0035 l -0.00581,0.00703 v 0.0035 l -0.00498,0.00586 v 0.0041 l -0.00498,0.00586 v 0.0035 l -0.00581,0.00703 v 0.0035 l -0.00415,0.00527 v 0.0035 l -0.00581,0.00703 v 0.0035 l -0.00581,0.00645 v 0.0035 l -0.00498,0.00586 v 0.00292 l -0.00581,0.00762 v 0.00292 l -0.00498,0.00645 v 0.0035 l -0.00581,0.00645 v 0.0035 l -0.00581,0.00762 v 0.00292 l -0.00498,0.00586 v 0 l -0.00581,0.00762 v 0.00292 l -0.00581,0.00703 v 0 l -0.00498,0.00645 v 0.0035 l -0.00581,0.00762 v 0.00292 l -0.00498,0.00645 v 0.00292 l -0.00581,0.00703 v 0.0035 l -0.00581,0.00762 v 0.00292 l -0.00415,0.00586 v 0.00292 l -0.00581,0.00762 v 0.00292 l -0.00581,0.00703 v 0.00292 l -0.00498,0.00645 v 0.0035 l -0.00581,0.00762 v 0 l -0.00498,0.00586 v 0 l -0.00581,0.00762 v 0.00292 l -0.00581,0.00762 v 0.00292 l -0.00498,0.00586 v 0 l -0.00581,0.00762 v 0 l -0.00581,0.00703 v 0 l -0.00581,0.00762 v 0 l -0.00664,0.0082 v 0 l -0.00498,0.00703 v 0 l -0.00664,0.0082 v 0 l -0.00581,0.00762 v 0 l -0.00498,0.00703 v 0 l -0.2273573,0.04277 v 0 l -0.00581,0.00703 v 0 l -0.00664,0.0082 v 0 l -0.00664,0.0082 v 0 l -0.00581,0.00762 v 0 l -0.00664,0.00879 v 0 l -0.00664,0.0082 v 0 l -0.00581,0.00762 v 0 l -0.00664,0.0082 v 0 l -0.00664,0.0082 v 0 l -0.00664,0.00879 v 0 l -0.00664,0.00879 v 0 l -0.00581,0.0082 v 0 l -0.00747,0.00937 v 0 l -0.014106,0.018162 v 0 l -0.00664,0.00879 v 0 l -0.00664,0.00879 v 0 l -0.00664,0.00937 v 0 l -0.014106,0.01875 v 0 l -0.00664,0.00937 v 0 l -0.00664,0.00937 v 0 l -0.00747,0.00937 v 0 l -0.00747,0.00937 v 0 l -0.00747,0.00937 v 0 l -0.00664,0.00937 v 0 l -0.014106,0.018746 v 0 l -0.00664,0.00937 v 0 l -0.00664,0.00937 v 0 l -0.00747,0.00937 v 0 l -0.00747,0.00937 v 0 l -0.00747,0.00937 v 0 l -0.00747,0.00996 v 0 L 3.1126829,9.98862 v 0 l -0.00747,0.00996 v 0 l -0.00747,0.00996 v 0 l -0.00747,0.01 v 0 l -0.014936,0.01992 v 0 l -0.00747,0.01 v 0 l -0.014936,0.01992 v 0 l -0.014936,0.01992 1.4736754,0.539014 C 5.1082477,9.8147539 5.7944691,9.0355262 6.5628378,8.2978962 Z M 1.3892093,12.830892 C 1.2539565,13.11739 1.1286609,13.407403 1.0133226,13.700346 v 0 l -0.0083,0.02168 v 0 l -0.008298,0.02168 v 0 l -0.0124466,0.03281 v 0 l -0.008298,0.02168 v 0 l -0.008298,0.02109 v 0 0.01055 0 0.01055 0 0.01055 0 l -0.007468,0.0205 v 0 0.01 0 0.0094 0 0.01 0 0.0094 0 0.01 0 0.0094 0 0.0094 0 0.0094 0 0.0082 0 0.0094 0 0.0082 0 0.0094 0 0.0094 0 0.0082 0 0.0088 0 0.007 0.0029 0.0088 0.0029 0.0076 0 0.0088 0.0035 0.0076 0.0041 0.0064 0.0041 0.0082 0.0035 0.0064 0.0035 0.0082 0.0041 0.0064 0.0047 0.0064 0.0041 0.007 0.0047 0.0053 0.0047 0.0076 0.0047 0.0053 0.0059 0.0059 0.0053 0.0041 0.0082 0.0047 0.0047 0.0053 0.0076 0.0047 0.0047 0.0076 0.0053 0.0041 0.0064 0.0059 0.0053 0.0047 0.0076 0.0047 0.0053 0.0041 0.0082 0.0041 0.0053 0.0076 0.0053 0.0035 0.0088 0.0041 0.0053 0.0035 0.0088 0.0035 0.0053 0.0041 0.0088 0.0035 0.0094 0.0029 0.0059 0.0035 0.0094 0.0029 0.0059 0.0035 0.0094 0.03867 0.0059 0 0.0123 0 0.01113 0 0.0059 0.0035 0.0094 0.01055 0.0059 0 0.01055 0 l -0.25639956,0.02343 v 0 0.0123 0 0.0064 0 0.01113 0 0.0064 0 0.01113 0 l -0.0265527,0.02988 v 0.0029 0.01055 0 0.0059 0 0.01 0.0029 0.0059 0 0.01 0.01055 l -0.005808,0.01875 v 0.0029 0.0094 0.0035 0.0059 0.0035 0.01 0 0.0059 0 0.01113 0.0035 0.0094 0.0035 0.0059 0.0035 0.01 0.01055 0.0059 0.0035 0.0088 0.0035 0.0053 0.0059 0.007 0.0041 0.0076 0.0047 0.0053 0.0041 0.0082 0.0041 0.0053 0.0047 0.0076 0.0047 0.0053 0.0076 0.0053 0.0047 0.007 0.0053 0.0047 0.0059 0.0059 0.0064 0.0041 0.0076 0.0047 0.0059 0.0041 0.0082 0.0041 0.0064 0.0035 0.0088 0.0041 0.007 0.0041 0.007 0.0035 0.0088 0.0035 0.007 0.0029 0.0088 0.0029 0.007 0 0.0088 0.0018 0.0088 0 0.0076 0 0.0094 0 0.0088 0 0.01 0 0.0094 0 0.01055 0 0.01055 0 0.01 0 0.01055 0 0.01113 0 0.01113 0 l -0.005808,0.02168 v 0 c -0.0348504,0.131824 -0.0680413,0.26482 -0.0995727,0.397816 L 2.2032158,15.84373 C 2.4148075,14.940666 2.7259721,14.050706 3.1342199,13.181838 L 1.5576531,12.812144 Z M 0.04,18.588975 v 0.01933 0 0.08554 0 0.05449 0 0.120106 0 1.010653 0.01934 0.06913 0 0.01113 0.01933 0.07792 0.01933 0 0.01933 0.03281 0.01172 0.01055 0.0123 0 0.0094 0.01875 0.01 0.0123 0.05566 0.01875 0.01055 0.01113 0.130652 0.01 0.253103 0.0088 0.01289 0.0088 0.01289 0.0082 0 0.0082 0.01699 0.0088 0.01289 0.0088 0.0123 0.0094 0 0.0082 0 0.01 0 0.0094 0 0.01992 0 0.0094 0 0.01 0 0.0094 0 0.0205 0 0.02051 0 0.0205 0 c 0.02904202,0.170493 0.06057336,0.339814 0.09625356,0.508549 L 1.7783724,21.326232 C 1.6638638,20.469667 1.6373111,19.60783 1.6995441,18.748335 v -0.1494 z m 2.7930127,5.42237 -1.5832051,0.351531 c 0.065552,0.146472 0.1327635,0.292357 0.2024644,0.437657 v 0 l 0.042318,0.08671 v 0 c 0.03568,0.07206 0.07136,0.144128 0.1078703,0.216191 v 0 c 0.3435257,0.673769 0.7418162,1.33289 1.1932122,1.973849 L 4.2817947,26.555845 C 3.705103,25.736192 3.2205162,24.885486 2.8330127,24.011345 Z m 3.4443837,4.898589 -1.3516986,0.677283 c 0.7974107,0.793289 1.6811182,1.542051 2.6428238,2.239255 v 0 l 0.010788,0.0082 1.1882337,-0.820239 C 7.861431,30.357657 7.0291696,29.652836 6.2782261,28.905246 Z m 5.4109436,3.918401 -0.995727,0.937417 c 0.835581,0.441758 1.707671,0.848363 2.611293,1.218056 v 0 l 0.04315,0.01758 v 0 l 0.02489,0.01 v 0 l 0.01494,0.0059 v 0 l 0.02406,0.01 v 0 l 0.01494,0.0059 v 0 l 0.0083,0.0029 v 0 l 0.0141,0.0053 v 0 l 0.01245,0.0053 v 0 h 0.0075 v 0 l 0.01162,0.0047 v 0 h 0.0075 0.0058 l 0.01,0.0041 h 0.005 l 0.01079,0.0041 h 0.005 0.0066 0.005 l 0.01,0.0041 h 0.0058 0.0058 l 0.01,0.0041 h 0.0058 0.0066 l 0.0083,0.0029 h 0.0066 0.0058 l 0.01,0.0041 h 0.005 0.0075 0.005 l 0.01079,0.0041 h 0.005 l 0.0083,0.0035 h 0.0066 l 0.0075,0.0029 h 0.005 l 0.01079,0.0041 h 0.005 l 0.0083,0.0029 h 0.0058 l 0.0091,0.0035 h 0.0058 l 0.01,0.0041 h 0.0041 l 0.0083,0.0035 v 0 l 0.01079,0.0041 v 0 l 0.01079,0.0041 v 0 l 0.01,0.0041 v 0 l 0.01162,0.0047 v 0 l 0.01,0.0041 v 0 l 0.01162,0.0047 v 0 l 0.01162,0.0047 v 0 l 0.01079,0.0041 v 0 l 0.01245,0.0047 v 0 l 0.01245,0.0047 v 0 l 0.01328,0.0053 v 0 l 0.0141,0.0053 v 0 l 0.01328,0.0053 v 0 l 0.01328,0.0053 v 0 l 0.01328,0.0053 v 0 l 0.01328,0.0053 v 0 l 0.01328,0.0053 v 0 l 0.02738,0.01055 v 0 l 0.01327,0.0053 v 0 l 0.01411,0.0053 v 0 l 0.01411,0.0053 v 0 l 0.02738,0.01055 v 0 l 0.01411,0.0053 v 0 l 0.02821,0.01055 v 0 l 0.04232,0.01582 v 0 l 0.851346,-0.956165 c -1.14712,-0.428711 -2.244079,-0.919683 -3.282954,-1.468658 z m 6.848938,2.559149 -0.536863,1.109081 c 1.035556,0.249587 2.092686,0.454061 3.163921,0.611078 v 0 l 0.03153,0.0047 v 0 l 0.03153,0.0047 v 0 h 0.01577 v 0 l 0.02987,0.0041 v 0 l 0.02904,0.0041 v 0 h 0.0141 v 0 h 0.01328 v 0 h 0.01411 v 0 h 0.01328 v 0 h 0.0141 v 0 h 0.01411 v 0 h 0.01162 v 0 h 0.01328 0.0041 0.01079 v 0 h 0.01245 0.005 0.01079 0.005 0.01 0.0058 0.01162 0.005 0.0083 0.03236 0.01162 0.0058 0.0083 0.0075 0.01 0.0058 0.0083 0.01 0.0075 0.0066 0.0083 0.0091 0.0058 0.0083 0.0091 0.0083 0.005 0.01411 v 0 h 0.0091 v 0 h 0.01577 v 0 l 0.02821,0.0035 v 0 l 0.02904,0.0035 v 0 h 0.01992 v 0 l 0.0307,0.0041 v 0 l 0.185039,0.02285 0.283782,-1.154195 c -1.268839,-0.137088 -2.520965,-0.34332 -3.744879,-0.617514 z m 11.514746,0.772196 c -1.146744,0.111319 -2.302617,0.166392 -3.459319,0.16522 -0.141061,0 -0.282123,0 -0.423184,0 l -0.02738,1.171771 h 0.09874 2.011368 0.02655 0.01577 0.02738 0.04564 0.02655 0.01659 0.02655 0.01577 0.02738 0.04481 0.02738 0.01494 0.02738 v 0 h 0.04232 v 0 h 0.04232 v 0 l 0.07136,-0.0041 v 0 h 0.04315 v 0 c 0.497863,-0.02871 0.991577,-0.06796 1.481143,-0.117177 l -0.22819,-1.16064 z m 7.410693,-1.592436 c -1.165828,0.40016 -2.374806,0.7347 -3.615315,1.001278 l 0.482927,1.121385 h 0.005 v 0 l 0.01909,-0.0041 v 0 l 0.07717,-0.01699 v 0 c 0.493714,-0.107803 0.98162,-0.22498 1.462889,-0.351532 v 0 l 0.02822,-0.0076 v 0 l 0.02822,-0.0076 v 0 l 0.01743,-0.0047 v 0 l 0.0274,-0.007 v 0 l 0.01658,-0.0047 v 0 h 0.0083 v 0 l 0.01576,-0.0041 v 0 l 0.02654,-0.007 v 0 l 0.01495,-0.0041 v 0 h 0.0083 v 0 l 0.01409,-0.0041 v 0 l 0.02573,-0.007 v 0 l 0.01409,-0.0041 v 0 h 0.0083 0.005 l 0.01245,-0.0035 h 0.005 0.0075 0.0058 l 0.01078,-0.0029 h 0.005 l 0.0116,-0.0029 h 0.0058 0.0066 0.0067 0.01 0.0058 0.0067 0.01 0.0066 0.0058 0.0075 0.0091 0.0058 0.0091 0.0067 0.0083 0.0058 l 0.01078,-0.0029 h 0.005 0.0083 0.005 l 0.01078,-0.0029 h 0.005 0.01 0.0058 0.0091 0.005 l 0.01163,-0.0035 h 0.0042 0.01 v 0 l 0.0116,-0.0035 h 0.0042 l 0.01245,-0.0035 v 0 l 0.01078,-0.0029 h 0.0042 l 0.01164,-0.0035 v 0 h 0.01 v 0 l 0.05725,-0.08847 v 0 l 0.01245,-0.0035 v 0 l 0.01163,-0.0035 v 0 l 0.01245,-0.0035 v 0 l 0.01245,-0.0035 v 0 l 0.01327,-0.0041 v 0 l 0.01327,-0.0041 v 0 l 0.01327,-0.0041 v 0 l 0.01327,-0.0041 v 0 l 0.01245,-0.0035 v 0 l 0.01327,-0.0041 v 0 l 0.01327,-0.0041 v 0 l 0.01327,-0.0041 v 0 l 0.01413,-0.0041 v 0 l 0.02822,-0.0082 v 0 l 0.02822,-0.0082 v 0 l 0.01409,-0.0041 v 0 l 0.02904,-0.0088 v 0 l 0.02904,-0.0088 v 0 c 0.437288,-0.12948 0.867939,-0.267163 1.292784,-0.413049 v 0 l 0.01409,-0.0047 z m 6.356887,-3.128629 c -0.936816,0.633929 -1.941667,1.215713 -3.006264,1.74008 l 0.949258,0.961438 c 0.639752,-0.31462 1.257935,-0.648575 1.854541,-1.000692 v 0 l 0.02405,-0.01465 v 0 l 0.03651,-0.02168 v 0 l 0.02405,-0.01406 v 0 l 0.01164,-0.007 v 0 l 0.02323,-0.01406 v 0 l 0.0116,-0.007 v 0 l 0.01078,-0.0064 v 0 l 0.01078,-0.0064 v 0 l 0.01078,-0.0064 v 0 l 0.01,-0.0059 v 0 l 0.01,-0.0059 v 0 l 0.0091,-0.0053 v 0 l 0.01,-0.0059 v 0 l 0.01,-0.0059 v 0 l 0.0083,-0.0053 v 0 l 0.01,-0.0059 v 0 l 0.0091,-0.0059 v 0 l 0.0075,-0.0047 v 0 l 0.0091,-0.0059 v 0 l 0.0075,-0.0047 v 0 l 0.0083,-0.0053 v 0 l 0.0091,-0.0059 v 0 l 0.0067,-0.0041 v 0 l 0.0091,-0.0059 v 0 l 0.0075,-0.0047 0.0058,-0.0035 0.0058,-0.0035 0.005,-0.0029 0.0083,-0.0053 0.0058,-0.0035 0.06555,-0.04101 0.0075,-0.0047 0.005,-0.0035 0.0058,-0.0035 0.0058,-0.0035 0.0075,-0.0047 h 0.0042 l 0.0091,-0.0053 h 0.0042 l 0.0058,-0.0035 v 0 l 0.0091,-0.0059 v 0 l 0.01993,-0.0123 v 0 l 0.0116,-0.007 v 0 l 0.02074,-0.01289 v 0 l 0.01245,-0.0076 v 0 l 0.0075,-0.0047 v 0 l 0.01327,-0.0082 v 0 l 0.02156,-0.01348 v 0 l 0.01327,-0.0082 v 0 l 0.02156,-0.01348 v 0 l 0.03651,-0.02285 v 0 c 0.231507,-0.145886 0.458865,-0.294701 0.682903,-0.446445 l -1.148403,-0.846019 z m 4.69568,-4.352543 c -0.616521,0.806178 -1.320997,1.576618 -2.106792,2.305459 l 1.320168,0.710094 v -0.0029 -0.0035 l 0.0042,-0.0041 0.0066,-0.0059 0.0042,-0.0041 0.0042,-0.0041 0.0058,-0.0053 0.005,-0.0047 v -0.0035 l 0.0067,-0.0064 v -0.0029 l 0.005,-0.0047 v -0.0035 l 0.0066,-0.0064 v -0.0035 l 0.005,-0.0047 0.0058,-0.0053 0.005,-0.0047 v -0.0035 l 0.0075,-0.0064 v -0.0029 l 0.005,-0.0053 v -0.0029 l 0.0067,-0.0064 v -0.0035 l 0.0067,-0.0064 v -0.0035 l 0.005,-0.0053 v -0.0029 l 0.0075,-0.007 v 0 l 0.0058,-0.0053 v -0.0041 l 0.0058,-0.0059 v 0 l 0.0075,-0.007 v 0 l 0.0058,-0.0053 v 0 l 0.0075,-0.007 v -0.0029 l 0.0067,-0.0064 v -0.0029 l 0.0058,-0.0053 v 0 l 0.0075,-0.007 v 0 l 0.0058,-0.0059 v -0.0029 l 0.0067,-0.0064 v 0 l 0.0075,-0.007 v 0 l 0.0066,-0.0059 v 0 l 0.0075,-0.007 v 0 l 0.0067,-0.0064 v 0 l 0.0066,-0.0064 v 0 l 0.0075,-0.0076 v 0 l 0.0058,-0.0059 v 0 l 0.0075,-0.007 v 0 l 0.0075,-0.007 v 0 l 0.0067,-0.0064 v 0 l 0.0075,-0.0076 v 0 l 0.11119,-0.05332 v 0 l 0.0075,-0.007 v 0 l 0.0075,-0.0076 v 0 l 0.0067,-0.0064 v 0 l 0.0075,-0.0076 v 0 l 0.0083,-0.0076 v 0 l 0.0075,-0.007 v 0 l 0.0083,-0.0076 v 0 l 0.0083,-0.0076 v 0 l 0.0083,-0.0082 v 0 l 0.0075,-0.0076 v 0 l 0.0067,-0.0064 v 0 l 0.0075,-0.0076 v 0 l 0.0083,-0.0082 v 0 l 0.0075,-0.0076 v 0 l 0.0083,-0.0082 v 0 l 0.0083,-0.0076 v 0 l 0.0083,-0.0082 v 0 l 0.0083,-0.0082 v 0 l 0.0075,-0.0076 v 0 l 0.0083,-0.0082 v 0 l 0.0083,-0.0082 v 0 l 0.0075,-0.007 v 0 l 0.0083,-0.0082 v 0 l 0.0075,-0.007 v 0 l 0.0083,-0.0082 v 0 l 0.0083,-0.0082 v 0 l 0.0067,-0.007 v 0 l 0.0075,-0.0076 v 0 l 0.0083,-0.0082 v 0 l 0.0075,-0.0076 v 0 l 0.0083,-0.0082 v 0 l 0.0083,-0.0082 v 0 l 0.0083,-0.0082 v 0 l 0.0083,-0.0082 v 0 l 0.0075,-0.0076 v 0 l 0.0075,-0.0082 v 0 l 0.01658,-0.01699 v 0 l 0.0083,-0.0082 v 0 l 0.0075,-0.0076 v 0 l 0.0083,-0.0082 v 0 l 0.0083,-0.0082 v 0 l 0.0075,-0.0076 v 0 l 0.0075,-0.0082 v 0 l 0.0083,-0.0088 v 0 l 0.0083,-0.0082 v 0 l 0.0083,-0.0082 v 0 l 0.0075,-0.0076 v 0 l 0.0083,-0.0082 v 0 l 0.0083,-0.0082 v 0 l 0.0075,-0.0082 v 0 l 0.0083,-0.0082 v 0 l 0.0083,-0.0082 v 0 l 0.0083,-0.0088 v 0 l 0.0083,-0.0088 v 0 l 0.0075,-0.0082 v 0 l 0.0083,-0.0088 v 0 l 0.01669,-0.01699 v 0 l 0.0075,-0.0082 v 0 l 0.0075,-0.0082 v 0 l 0.0083,-0.0088 v 0 l 0.0083,-0.0082 v 0 l 0.0075,-0.0076 v 0 l 0.0083,-0.0082 v 0 l 0.01576,-0.01699 v 0 l 0.0075,-0.0082 v 0 l 0.0075,-0.0076 v 0 l 0.0075,-0.0082 v 0 l 0.0075,-0.0082 v 0 l 0.0067,-0.0076 v 0 l 0.0075,-0.0082 v 0 l 0.0075,-0.0076 v 0 l 0.0075,-0.0082 v 0 l 0.0075,-0.0082 v 0 l 0.0075,-0.0076 v 0 l 0.0075,-0.0082 v 0 l 0.0083,-0.0088 v 0 l 0.0067,-0.0076 v 0 l 0.119384,-0.12245 v 0 l 0.0066,-0.007 v 0 l 0.0075,-0.0076 v 0 l 0.0075,-0.0076 v 0 l 0.0066,-0.007 v 0 l 0.0075,-0.0082 v 0 l 0.0075,-0.0076 v 0 l 0.0067,-0.0076 v 0 l 0.0075,-0.0076 v 0 l 0.0058,-0.007 v 0 l 0.0075,-0.0076 v 0 l 0.0067,-0.0076 v 0 l 0.0058,-0.0064 v 0 l 0.0075,-0.0076 v 0 l 0.0067,-0.0076 v 0 l 0.0067,-0.0076 v 0 l 0.0075,-0.0082 v 0 l 0.0058,-0.0064 v 0 l 0.0067,-0.0076 v 0 l 0.04232,-0.04921 v 0 l 0.0058,-0.0064 v 0 l 0.0067,-0.0076 v 0 l 0.0058,-0.0064 v 0 l 0.0067,-0.007 v 0 l 0.0066,-0.0076 v 0 l 0.0058,-0.0064 v 0 l 0.0067,-0.0076 v -0.0029 l 0.0058,-0.0064 v -0.0029 l 0.005,-0.0059 v -0.0035 l 0.0067,-0.007 v -0.0029 l 0.005,-0.0059 v -0.0029 l 0.0058,-0.007 v -0.0035 l 0.0067,-0.007 v 0 l 0.005,-0.0059 v -0.0029 l 0.0067,-0.007 v -0.0035 l 0.0058,-0.0064 v 0 l 0.0058,-0.0064 v -0.0035 l 0.0067,-0.007 v -0.0029 l 0.005,-0.0059 v -0.0035 l 0.0058,-0.0064 v -0.0035 l 0.0066,-0.0076 v 0 l 0.005,-0.0053 v -0.0035 l 0.0058,-0.0064 v -0.0041 l 0.0042,-0.0047 0.0042,-0.0053 0.0042,-0.0053 V 28.6 l 0.0058,-0.007 v -0.0035 l 0.0042,-0.0053 v -0.0041 l 0.0058,-0.0064 v -0.0035 l 0.005,-0.0059 v -0.0047 l 0.0042,-0.0047 v -0.0035 l 0.0058,-0.007 v -0.0035 l 0.0042,-0.0053 0.0042,-0.0047 0.0042,-0.0053 v -0.0035 l 0.0058,-0.007 v -0.0035 l 0.0042,-0.0053 v -0.0035 l 0.0067,-0.007 v -0.0035 l 0.005,-0.0059 v -0.0047 l 0.0042,-0.0053 v -0.0035 l 0.0058,-0.0064 v -0.0041 -0.0047 l 0.0042,-0.0053 0.0042,-0.0053 V 28.443 l 0.005,-0.0059 v -0.0047 -0.0041 -0.0041 l 0.0058,-0.0064 V 28.4137 28.409 l 0.005,-0.0064 v -0.0041 -0.0041 l 0.005,-0.0059 0.005,-0.0053 v -0.0035 l 0.0058,-0.007 V 28.3692 28.3645 28.361 l 0.0058,-0.007 v -0.0035 l 0.0066,-0.0076 v -0.0035 -0.0047 -0.0029 l 0.0067,-0.0076 V 28.3207 28.316 28.3119 l 0.0058,-0.007 v -0.0035 l 0.0058,-0.0076 v -0.0035 -0.0047 -0.0035 l 0.0058,-0.0076 v -0.0029 l 0.0075,-0.0094 v 0 -0.0047 -0.0035 l 0.0058,-0.0076 v -0.0035 -0.0047 0 l 0.0075,-0.0088 v 0 l 0.0067,-0.0076 v -0.0029 -0.0047 -0.0035 l 0.0067,-0.0076 v -0.0029 l 0.01327,-0.0164 v 0 l 0.0075,-0.0088 v 0 -0.0053 0 l 0.0075,-0.0088 v 0 l 0.0083,-0.0094 v 0 l 0.0042,-0.0053 v 0 l 0.0075,-0.0088 v 0 l 0.0042,-0.0053 v 0 l 0.0075,-0.0094 v 0 l 0.0075,-0.0088 v 0 l 0.0042,-0.0053 v 0 l 0.0083,-0.01055 v 0 l 0.01409,-0.01699 v 0 l 0.0075,-0.0094 v 0 l 0.01409,-0.01699 v 0 l 0.0091,-0.01113 v 0 l 0.005,-0.0059 v 0 l 0.0091,-0.01172 v 0 l 0.01409,-0.01758 v 0 l 0.0091,-0.01113 v 0 l 0.01409,-0.01758 v 0 l 0.01409,-0.01758 v 0 l 0.0083,-0.01113 v 0 l 0.01409,-0.01758 v 0 l 0.0091,-0.01113 v 0 l 0.273825,-0.09257 v 0 l 0.01409,-0.01816 v 0 l 0.0091,-0.01172 v 0 l 0.01409,-0.01816 v 0 l 0.01409,-0.01816 v 0 l 0.0091,-0.01172 v 0 l 0.01409,-0.01758 v 0 l 0.0091,-0.01172 v 0 l 0.01409,-0.01758 v 0 l 0.0083,-0.01113 v 0 l 0.01409,-0.01816 v 0 l 0.01409,-0.01816 v 0 l 0.0042,-0.0059 -1.4604,-0.556592 z m 2.566482,-5.155792 c -0.233165,0.900506 -0.565902,1.78695 -0.995725,2.650545 l 1.565779,0.388443 c 0.08049,-0.162291 0.158486,-0.325753 0.233165,-0.490386 v 0 l 0.0091,-0.01992 v 0 l 0.0067,-0.02754 v 0 l 0.005,-0.01055 v 0 -0.0059 0 l 0.0042,-0.01 v -0.0029 -0.0053 -0.007 -0.0053 -0.0041 -0.0076 -0.0041 -0.0053 -0.0053 -0.0064 -0.0053 -0.0047 -0.0076 -0.0035 -0.0059 -0.0041 -0.0082 -0.0041 -0.0059 -0.0041 -0.0076 -0.0041 -0.007 -0.0047 -0.0064 -0.0035 -0.0082 -0.0035 -0.0064 0 -0.0088 -0.0035 -0.0076 0 -0.0094 0 -0.0094 0 -0.0082 0 -0.0094 0 -0.0082 0 -0.0094 0 l 0.0042,-0.01 v 0 -0.0094 0 l 0.0042,-0.01 v 0 -0.0094 0 l 0.0042,-0.01 v 0 l 0.0091,-0.02109 v 0 l 0.0083,-0.02109 v 0 l 0.140229,-0.06093 v 0 l 0.0091,-0.02109 v 0 l 0.01327,-0.03281 v 0 l 0.0091,-0.02168 v 0 l 0.0091,-0.02168 v 0 c 0.130276,-0.321651 0.248931,-0.646818 0.355972,-0.9755 v 0 l 0.01078,-0.0334 v 0 l 0.0066,-0.02168 v 0 l 0.0067,-0.02168 v 0 -0.01055 0 -0.01055 0 -0.01055 0 l 0.0067,-0.0205 v 0 -0.01 0 -0.0094 0 -0.01 0 -0.0094 0 -0.01 0 -0.01 0 -0.0094 0 -0.0094 0 -0.0082 0 -0.0094 0 -0.0088 0 -0.0088 -0.0035 -0.0088 0 -0.007 -0.03164 -0.0088 -0.0035 -0.007 -0.0029 -0.0088 -0.0041 -0.007 -0.0047 -0.0064 -0.0047 -0.0076 -0.0047 -0.0053 -0.0041 -0.0082 -0.0047 -0.0053 -0.0064 -0.0053 -0.0053 -0.0053 -0.007 -0.0047 -0.0053 -0.0059 -0.007 -0.0023 -0.01113 0 -0.0059 0 -0.01055 0 -0.0059 0 -0.01172 0 l 0.0058,-0.01992 v 0 c 0.0274,-0.09608 0.05311,-0.193342 0.078,-0.289427 l -1.632161,-0.210333 z m 1.841265,-5.624501 -1.645437,0.151158 c 0.1394,0.759894 0.208272,1.52506 0.208272,2.291398 0,0.149402 -0.0025,0.298802 -0.0083,0.447617 l 1.659544,0.02929 c 0,-0.04511 0,-0.09081 0,-0.136511 v 0 -0.131238 0 -0.0064 0 -0.0064 0 -0.0064 0 -0.175765 0 -0.01406 0 -0.544287 0 -0.01348 0 -0.03691 0 -0.0088 -0.02812 -0.01289 0 -0.02168 0 -0.007 0 -0.02988 0 -0.0076 0 -0.02988 0 c -0.03153,-0.575926 -0.09957,-1.14482 -0.203293,-1.706099 z m -2.336637,-5.596378 -1.498569,0.503276 c 0.555947,0.824926 1.01896,1.679733 1.385717,2.555632 l 1.591505,-0.331026 c -0.0921,-0.220878 -0.190018,-0.440585 -0.293739,-0.658535 v 0 l -0.01,-0.02051 v 0 l -0.005,-0.01055 v 0 l -0.005,-0.01 v 0 l -0.005,-0.01 v 0 l -0.005,-0.01 v 0 l -0.005,-0.01 v 0 l -0.0042,-0.0094 v 0 -0.0082 0 l -0.0042,-0.0094 v 0 -0.0082 0 -0.0082 -0.0035 l -0.0042,-0.0088 v 0 -0.007 -0.0029 -0.0082 -0.0035 -0.0064 -0.0047 -0.0064 -0.0035 -0.0076 -0.0041 -0.0053 -0.0041 -0.0076 -0.0047 -0.0041 -0.007 -0.0047 -0.0047 -0.0047 -0.007 -0.0041 -0.0053 -0.007 -0.0053 -0.0035 l -0.0042,-0.0088 v -0.0035 -0.0059 0 l -0.005,-0.01055 v 0 l -0.0091,-0.01816 v 0 l -0.0058,-0.01172 v 0 l -0.01,-0.01934 v 0 c -0.25972,-0.510892 -0.548478,-1.010652 -0.867939,-1.499867 v 0 l -0.01245,-0.01875 v 0 l -0.0075,-0.01172 v 0 -0.0059 0 l -0.0067,-0.01055 v 0 l -0.0116,-0.01758 v 0 l -0.0058,-0.0088 v -0.0029 -0.0053 -0.0035 l -0.121974,-0.04101 v -0.0035 -0.0047 l -0.0042,-0.007 v -0.0047 -0.0035 l -0.0042,-0.007 v -0.0047 -0.0041 -0.0053 -0.0053 -0.0053 -0.0041 l -0.005,-0.0076 v -0.0035 -0.0059 -0.0029 l -0.005,-0.0082 v -0.0029 l -0.005,-0.0076 v 0 l -0.0042,-0.007 v 0 z m -4.667467,-4.8153929 -1.20732,0.8038346 c 0.890345,0.6667377 1.705182,1.3815181 2.4387,2.1373104 L 48.519432,8.1731027 C 48.129437,7.7705992 47.717871,7.3803996 47.285561,7.0013316 v 0 l -0.01825,-0.016404 v 0 l -0.01327,-0.012888 v 0 l -0.01826,-0.01582 v 0 l -0.01078,-0.00937 v 0 l -0.0058,-0.00527 v 0 l -0.01078,-0.00937 v 0 l -0.01743,-0.014646 v 0 l -0.0083,-0.00703 v 0 l -0.005,-0.0041 v -0.0035 l -0.0075,-0.00645 v 0 l -0.0067,-0.00586 -0.005,-0.0041 -0.0042,-0.0035 -0.005,-0.0041 -0.0058,-0.00527 -0.0042,-0.0035 -0.005,-0.0041 -0.0067,-0.00586 v -0.0035 l -0.005,-0.00469 -0.005,-0.0041 -0.0058,-0.00527 v -0.00292 l -0.0075,-0.00645 v -0.00292 l -0.0058,-0.00469 v 0 l -0.0083,-0.00703 v 0 l -0.0075,-0.00645 v 0 l -0.0067,-0.00527 v 0 l -0.0083,-0.00703 v 0 l -0.0075,-0.00586 v 0 l -0.0075,-0.00645 v 0 l -0.0083,-0.00703 v 0 l -0.0075,-0.00645 v 0 l -0.0083,-0.00703 v 0 l -0.0083,-0.00703 v 0 l -0.0083,-0.00645 v 0 l -0.0083,-0.00703 v 0 l -0.0091,-0.00762 v 0 l -0.0725,-0.053894 v 0 l -0.0091,-0.00762 v 0 l -0.0091,-0.00762 v 0 l -0.01,-0.0082 v 0 L 46.8748,6.6451916 v 0 l -0.0091,-0.0082 v 0 l -0.02654,-0.022261 v 0 l -0.01,-0.0082 v 0 l -0.0199,-0.017001 v 0 l -0.02074,-0.016992 v 0 C 46.50805,6.3411127 46.219288,6.114375 45.923062,5.8923246 Z M 39.38696,2.3201065 38.584569,3.3395473 c 1.135961,0.4423435 2.221302,0.946205 3.246898,1.5074835 L 42.848768,3.9254327 C 42.224779,3.5838615 41.579219,3.2622104 40.912912,2.9598935 v 0 l -0.04149,-0.018749 v 0 l -0.02573,-0.011718 v 0 l -0.04149,-0.018162 v 0 l -0.02242,-0.014647 v 0 l -0.01576,-0.00703 v 0 l -0.02405,-0.011132 v 0 l -0.04066,-0.018162 v 0 l -0.02405,-0.010546 v 0 l -0.01495,-0.00644 v 0 l -0.02405,-0.010546 v 0 l -0.02405,-0.010546 v 0 l -0.01327,-0.00586 v 0 l -0.02323,-0.010546 v 0 l -0.01494,-0.00644 v 0 l -0.0083,-0.00352 v 0 l -0.01576,-0.00644 v 0 l -0.01409,-0.00586 v 0 l -0.0075,-0.00293 v 0 l -0.01245,-0.00527 v 0 l -0.05476,-0.021678 v 0 l -0.01164,-0.00527 v 0 l -0.0075,-0.00293 v 0 l -0.01327,-0.00586 v 0 l -0.01327,-0.00586 v 0 l -0.0075,-0.00293 h -0.0042 l -0.02573,-0.015233 h -0.005 -0.0067 -0.005 l -0.01078,-0.00469 h -0.0042 L 40.321263,2.69507 v 0 h -0.01078 v 0 L 40.298033,2.6898 v 0 l -0.01409,-0.00586 v 0 l -0.0075,-0.00293 v 0 l -0.01163,-0.00469 h -0.0042 l -0.0067,-0.00293 v 0 l -0.01245,-0.00527 h -0.0042 l -0.0116,-0.00469 v 0 l -0.02491,-0.018162 v 0 l -0.01825,-0.00879 v 0 l -0.02323,-0.00996 h -0.0042 l -0.01164,-0.00469 h -0.0042 -0.0067 -0.005 l -0.01,-0.012303 h -0.005 l -0.01,-0.0041 h -0.0058 -0.0067 -0.005 l -0.01078,-0.0041 h -0.0042 l -0.01164,-0.00469 h -0.0042 -0.0066 -0.0042 l -0.01078,-0.00469 h -0.005 -0.0067 -0.0058 l -0.01,-0.0041 h -0.0042 l -0.01078,-0.00469 h -0.005 -0.0067 -0.005 l -0.01078,-0.00469 h -0.0042 -0.0066 -0.005 l -0.01078,-0.00469 h -0.0042 l -0.01163,-0.00469 h -0.0042 -0.0075 v 0 l -0.01993,-0.0498 h -0.0042 l -0.01164,-0.00469 v 0 l -0.0075,-0.00293 v 0 l -0.01245,-0.00527 v 0 l -0.02323,-0.00937 v 0 l -0.01163,-0.00469 v 0 l -0.0075,-0.00293 v 0 l -0.01245,-0.00527 v 0 l -0.01494,-0.00586 v 0 l -0.03484,-0.017577 v 0 l -0.01327,-0.00527 v 0 l -0.0332,-0.01289 v 0 l -0.01245,-0.00527 v 0 l -0.0075,-0.00293 v 0 l -0.01327,-0.00527 v 0 l -0.02405,-0.00937 v 0 l -0.01494,-0.00586 v 0 l -0.02491,-0.00996 v 0 l -0.02491,-0.00996 v 0 l -0.01454,-0.00585 v 0 l -0.02491,-0.00996 v 0 l -0.04232,-0.016405 v 0 l -0.0697,-0.026951 v 0 l -0.02242,-0.00879 z M 31.612826,0.33454061 31.300831,1.4852197 c 1.2737,0.1722503 2.525826,0.4148069 3.745591,0.7253262 L 35.609838,1.1084953 C 35.051401,0.96612516 34.483837,0.83664446 33.907975,0.72005327 v 0 l -0.0307,-0.006445 v 0 l -0.0307,-0.005859 v 0 l -0.0166,-0.004687 v 0 l -0.02987,-0.005859 v 0 l -0.02987,-0.005859 v 0 h -0.0141 v 0 h -0.01328 v 0 h -0.01411 v 0 h -0.01328 v 0 h -0.01411 v 0 h -0.01328 v 0 h -0.01245 v 0 h -0.01245 v 0 h -0.01079 v 0 h -0.01328 v 0 h -0.01162 v 0 h -0.01245 -0.0041 -0.01245 v 0 h -0.01079 v 0 h -0.01245 -0.0041 -0.01 -0.0041 -0.01162 -0.005 -0.01079 -0.0058 -0.01 -0.005 -0.01162 -0.005 -0.0083 -0.005 -0.01162 -0.0058 -0.0083 -0.0083 -0.0083 -0.0058 -0.01 -0.0075 -0.0075 -0.0058 -0.01162 -0.0058 -0.0075 -0.0075 -0.01 -0.0058 -0.0083 -0.0083 -0.0075 -0.0066 -0.01 -0.0075 -0.0066 -0.0066 -0.01079 -0.0066 -0.0075 l -0.0512,-0.10545877 h -0.0075 -0.0075 -0.0058 -0.01162 -0.005 -0.0075 -0.005 -0.01245 -0.0041 -0.01494 v 0 h -0.0083 v 0 h -0.01494 v 0 h -0.0083 v 0 h -0.01494 -0.02157 l -0.02406,-0.0292942 v 0 l -0.01659,-0.002931 v 0 h -0.0091 v 0 h -0.0166 v 0 l -0.03817,-0.0111319 v 0 l -0.02987,-0.005273 v 0 l -0.01909,-0.002931 v 0 l -0.0307,-0.007031 v 0 l -0.0307,-0.003515 v 0 l -0.04979,-0.008788 v 0 l -0.0307,-0.005273 v 0 l -0.02987,-0.004687 v 0 c -0.21733,-0.036322 -0.43556,-0.0708893 -0.65379,-0.10311294 v 0 l -0.08298,-0.0117177 v 0 l -0.02738,-0.004687 v 0 l -0.0307,-0.004687 v 0 h -0.01825 v 0 l -0.03236,-0.007031 v 0 l -0.0307,-0.004687 v 0 h -0.01909 v 0 h -0.01 v 0 h -0.01909 v 0 l -0.03236,-0.0111318 v 0 l -0.0307,-0.006445 v 0 h -0.01825 v 0 h -0.01328 v 0 h -0.01825 v 0 l -0.03153,-0.008788 v 0 l -0.01659,-0.00293 v 0 h -0.0091 v 0 h -0.0141 -0.01825 v -0.005273 z M 26.592705,0 v 1.171771 c 0.282952,0 0.565075,0.00352 0.845538,0.00996 l 0.0556,-1.17177095 C 27.307969,0.00644474 27.122929,0.00292943 26.936231,0 Z"
   id="path1" />&#10;<g
   id="g2"
   transform="matrix(0.25895908,0,0,0.20359395,-38.652698,-34.381606)">&#10;	<rect
   x="244.03999"
   y="175.976"
   style="fill:#e21b1b"
   width="24"
   height="160.08"
   id="rect1" />&#10;	<rect
   x="176"
   y="244"
   style="fill:#e21b1b"
   width="160.08"
   height="24"
   id="rect2" />&#10;</g>&#10;</svg>
